<?xml version="1.0" standalone="no"?>
<!DOCTYPE svg PUBLIC "-//W3C//DTD SVG 20010904//EN"
 "http://www.w3.org/TR/2001/REC-SVG-20010904/DTD/svg10.dtd">
<svg version="1.0" xmlns="http://www.w3.org/2000/svg"
 width="1893.000000pt" height="1855.000000pt" viewBox="0 0 1893.000000 1855.000000"
 preserveAspectRatio="xMidYMid meet">

<g transform="translate(0.000000,1855.000000) scale(0.100000,-0.100000)"
fill="#000000" stroke="none">
<path d="M5756 18439 c-314 -36 -610 -181 -829 -404 -109 -112 -4524 -5645
-4612 -5780 -66 -101 -93 -155 -138 -275 -70 -187 -101 -431 -78 -620 6 -52
325 -1470 708 -3151 l697 -3057 3711 -1778 c2040 -977 3748 -1791 3795 -1807
132 -46 251 -67 410 -73 221 -9 406 26 607 114 91 40 7394 3550 7402 3557 9
10 1392 6087 1402 6165 17 127 6 351 -24 480 -40 169 -110 331 -200 464 -70
105 -4525 5687 -4596 5759 -165 170 -397 306 -626 367 -197 52 -13 50 -3925
48 -1999 0 -3666 -4 -3704 -9z m2729 -1358 c104 -28 263 -106 345 -169 36 -27
95 -81 133 -121 l68 -72 57 49 c117 101 238 166 377 203 105 29 325 32 428 6
221 -55 427 -197 547 -377 24 -36 44 -67 46 -69 2 -2 52 12 111 32 526 174
1097 -67 1343 -568 181 -366 153 -794 -73 -1130 -206 -308 -555 -495 -920
-495 -56 0 -129 5 -162 10 -57 10 -61 9 -75 -12 -152 -228 -357 -359 -611
-391 -114 -14 -243 1 -362 43 -98 34 -97 34 -97 17 0 -7 -20 -46 -44 -87 -136
-230 -357 -389 -620 -446 -113 -25 -291 -21 -406 9 -120 31 -192 63 -295 132
-136 90 -255 228 -326 378 l-29 61 -172 1 c-162 1 -178 2 -258 29 -150 50
-233 99 -344 205 -84 81 -146 166 -191 265 -129 279 -98 622 79 869 50 71 161
181 224 222 49 32 48 21 8 151 -104 342 -12 715 243 978 149 153 321 248 527
291 104 21 345 14 449 -14z m-5704 -4711 c234 -24 533 -118 572 -181 14 -23
-109 -335 -141 -356 -21 -14 -27 -13 -80 10 -349 154 -703 138 -930 -43 -210
-168 -275 -519 -145 -783 72 -145 227 -266 403 -313 78 -22 289 -24 390 -5 91
17 223 58 299 92 90 41 93 38 164 -161 52 -147 56 -165 44 -184 -34 -51 -274
-141 -455 -171 -154 -26 -429 -17 -567 18 -179 46 -318 113 -450 217 -402 320
-490 942 -195 1381 56 82 177 208 260 268 238 175 509 243 831 211z m2427 -42
c8 -8 12 -66 12 -193 0 -127 -4 -185 -12 -193 -9 -9 -125 -12 -460 -12 l-448
0 0 -225 0 -225 396 0 c253 0 402 -4 415 -10 18 -10 19 -23 19 -195 0 -172 -1
-185 -19 -195 -13 -6 -162 -10 -415 -10 l-396 0 0 -180 0 -180 438 0 c380 0
440 -2 460 -16 21 -15 22 -21 22 -194 0 -149 -3 -181 -16 -194 -14 -14 -88
-16 -669 -16 -581 0 -655 2 -669 16 -14 14 -16 119 -16 1013 0 762 3 1000 12
1009 17 17 1329 17 1346 0z m1487 -7 c186 -38 309 -104 418 -221 130 -140 186
-317 174 -550 -7 -131 -21 -192 -70 -293 -43 -92 -108 -170 -186 -227 -34 -25
-59 -50 -57 -57 3 -7 109 -150 236 -317 126 -168 230 -309 230 -314 0 -4 -7
-18 -16 -30 -15 -22 -19 -22 -239 -22 l-225 0 -37 48 c-21 27 -114 155 -208
285 l-170 237 -157 0 -158 0 0 -269 c0 -232 -2 -272 -16 -285 -13 -13 -46 -16
-209 -16 -189 0 -194 1 -209 22 -14 20 -16 132 -16 1006 0 659 3 990 10 1003
10 18 25 19 413 19 353 0 413 -3 492 -19z m2633 7 c18 -18 17 -372 -1 -387 -9
-7 -114 -12 -318 -13 l-304 -3 -3 -804 c-1 -574 -5 -808 -13 -818 -9 -10 -56
-13 -210 -13 -193 0 -198 1 -213 22 -14 20 -16 114 -16 820 l0 798 -315 0
c-300 0 -315 1 -325 19 -6 11 -10 90 -10 186 0 96 4 175 10 186 10 19 31 19
858 19 646 0 851 -3 860 -12z m886 -4 c14 -14 16 -118 16 -1002 0 -878 -2
-990 -16 -1010 -15 -21 -20 -22 -209 -22 -163 0 -196 3 -209 16 -14 14 -16
119 -16 1005 0 664 3 997 10 1010 10 18 23 19 210 19 167 0 201 -2 214 -16z
m1934 4 c8 -8 12 -66 12 -193 0 -127 -4 -185 -12 -193 -9 -9 -126 -12 -465
-12 l-453 0 0 -235 0 -235 393 0 c324 0 397 -3 413 -14 17 -13 19 -30 22 -181
3 -139 1 -170 -13 -191 l-15 -24 -400 0 -400 0 0 -368 c0 -273 -3 -371 -12
-380 -9 -9 -68 -12 -204 -12 -162 0 -195 3 -208 16 -14 14 -16 119 -16 1013 0
762 3 1000 12 1009 17 17 1329 17 1346 0z m926 -4 c14 -14 16 -118 16 -1002 0
-878 -2 -990 -16 -1010 -15 -21 -20 -22 -209 -22 -163 0 -196 3 -209 16 -14
14 -16 119 -16 1005 0 664 3 997 10 1010 10 18 23 19 210 19 167 0 201 -2 214
-16z m1934 4 c8 -8 12 -66 12 -193 0 -127 -4 -185 -12 -193 -9 -9 -125 -12
-460 -12 l-448 0 0 -225 0 -225 403 0 c300 0 406 -3 415 -12 8 -8 12 -66 12
-195 0 -170 -1 -183 -19 -193 -13 -6 -162 -10 -415 -10 l-396 0 0 -180 0 -180
438 0 c380 0 440 -2 460 -16 21 -15 22 -21 22 -194 0 -149 -3 -181 -16 -194
-14 -14 -88 -16 -669 -16 -581 0 -655 2 -669 16 -14 14 -16 119 -16 1013 0
762 3 1000 12 1009 17 17 1329 17 1346 0z m1538 -3 c433 -76 745 -358 847
-765 31 -126 30 -360 -2 -484 -110 -423 -443 -711 -896 -776 -105 -15 -928
-13 -943 2 -17 17 -17 2009 0 2026 20 20 879 17 994 -3z m-8807 -4373 c48 -24
73 -62 78 -119 8 -88 -46 -152 -134 -160 -110 -10 -173 44 -173 147 0 98 52
148 155 149 22 1 55 -7 74 -17z m1740 0 c48 -24 73 -62 78 -119 8 -88 -46
-152 -134 -160 -110 -10 -173 44 -173 147 0 98 52 148 155 149 22 1 55 -7 74
-17z m-5555 -94 c27 -45 487 -1260 482 -1274 -5 -12 -30 -14 -143 -12 l-137 3
-33 90 c-18 50 -40 109 -49 133 l-16 42 -246 0 -247 0 -50 -133 -50 -132 -133
-3 c-110 -2 -133 0 -138 12 -6 15 468 1258 488 1284 7 8 47 12 134 12 117 0
124 -1 138 -22z m1526 -613 c3 -346 7 -634 9 -640 11 -33 1 -36 -116 -33
l-118 3 -10 43 -11 43 -24 -27 c-91 -97 -326 -122 -468 -50 -100 51 -179 172
-207 320 -71 372 129 676 443 676 59 0 156 -25 200 -51 18 -10 35 -19 38 -19
2 0 4 80 4 178 0 98 3 182 7 186 4 3 61 5 127 4 l121 -3 5 -630z m5554 579 c3
-9 6 -76 6 -149 l0 -134 113 -3 112 -3 0 -100 0 -100 -112 -3 -113 -3 0 -260
0 -260 26 -25 c23 -24 31 -26 97 -23 l72 4 18 -94 c11 -55 15 -97 10 -102 -17
-17 -128 -31 -199 -26 -129 9 -218 67 -266 172 -22 48 -23 63 -26 332 l-4 282
-71 3 -72 3 -3 82 c-3 95 -2 97 90 108 l57 7 3 112 3 111 115 41 c133 49 136
49 144 28z m2530 0 c3 -9 6 -76 6 -149 l0 -134 113 -3 112 -3 0 -100 0 -100
-112 -3 -113 -3 0 -260 0 -260 26 -25 c23 -24 31 -26 97 -23 l72 4 18 -94 c11
-55 15 -97 10 -102 -17 -17 -128 -31 -199 -26 -129 9 -218 67 -266 172 -22 48
-23 63 -26 332 l-4 282 -71 3 -72 3 -3 82 c-3 95 -2 97 90 108 l57 7 3 112 3
111 115 41 c133 49 136 49 144 28z m-7089 -283 c35 -17 78 -48 95 -67 l32 -37
41 41 c85 81 209 116 338 94 86 -15 132 -38 188 -93 101 -101 112 -160 109
-576 l-3 -328 -125 0 -125 0 -5 330 c-5 319 -6 332 -28 377 -30 60 -73 82
-152 76 -72 -5 -118 -37 -151 -105 -23 -46 -24 -58 -29 -363 -3 -173 -7 -316
-8 -318 -1 -1 -59 -1 -129 0 l-128 3 -5 345 c-5 341 -5 345 -28 378 -31 42
-70 62 -127 62 -83 0 -145 -43 -182 -125 -15 -35 -18 -82 -23 -350 l-5 -310
-119 -3 c-66 -1 -123 1 -127 5 -4 4 -9 224 -10 488 l-3 480 118 0 119 0 11
-39 c10 -35 12 -37 25 -22 8 9 33 28 55 41 110 64 269 71 381 16z m2337 14
c61 -21 142 -94 173 -154 41 -81 46 -143 43 -496 l-3 -330 -125 0 -125 0 -5
330 c-5 305 -7 333 -25 369 -28 55 -64 78 -130 84 -98 8 -172 -36 -214 -128
-13 -29 -17 -92 -21 -345 l-5 -310 -119 -3 c-66 -1 -123 1 -127 5 -4 4 -9 224
-10 488 l-3 480 119 0 119 0 9 -38 9 -38 22 19 c31 29 101 64 160 79 64 16
195 10 258 -12z m1491 10 c86 -18 207 -80 207 -106 0 -28 -82 -149 -101 -149
-9 0 -43 12 -75 27 -65 29 -181 42 -226 24 -43 -16 -62 -53 -48 -95 13 -39 52
-60 183 -95 108 -29 166 -61 219 -120 71 -78 88 -188 47 -297 -61 -162 -282
-248 -511 -199 -112 23 -228 83 -228 117 0 20 85 145 103 151 6 2 40 -10 75
-26 105 -49 240 -50 288 -2 24 24 31 65 18 100 -9 23 -69 51 -164 75 -163 42
-254 109 -284 211 -43 143 9 275 133 342 97 53 237 69 364 42z m1738 5 c16 -9
19 -22 19 -74 0 -35 -3 -84 -6 -110 l-7 -46 -71 0 c-115 -1 -173 -36 -218
-135 -22 -47 -23 -65 -28 -340 l-5 -290 -119 -3 c-66 -1 -123 1 -127 5 -4 4
-9 224 -10 488 l-3 480 119 0 119 0 9 -44 c7 -36 11 -42 18 -28 39 68 243 132
310 97z m704 -14 c75 -23 141 -70 175 -123 58 -92 62 -117 70 -498 4 -192 4
-354 0 -358 -4 -4 -56 -6 -115 -5 l-109 3 -9 38 -9 37 -30 -25 c-95 -80 -249
-106 -383 -64 -55 17 -78 31 -121 74 -67 67 -89 133 -81 245 6 89 25 136 74
191 70 77 192 116 396 126 l128 6 -7 41 c-9 57 -29 82 -80 102 -63 24 -186 15
-279 -21 -38 -14 -76 -27 -83 -28 -7 -1 -32 33 -54 77 -32 60 -39 82 -31 95
14 22 143 76 228 95 84 19 245 15 320 -8z m1800 9 c170 -36 286 -137 347 -301
18 -50 22 -80 22 -199 0 -119 -4 -149 -22 -199 -32 -87 -63 -135 -126 -194
-195 -185 -552 -172 -727 27 -104 117 -149 301 -120 478 49 290 314 454 626
388z m1176 5 c16 -9 19 -22 19 -74 0 -35 -3 -84 -6 -110 l-7 -46 -71 0 c-115
-1 -173 -36 -218 -135 -22 -47 -23 -65 -28 -340 l-5 -290 -119 -3 c-66 -1
-123 1 -127 5 -4 4 -9 224 -10 488 l-3 480 119 0 119 0 9 -44 c8 -41 9 -42 23
-22 47 67 241 125 305 91z m-7906 -510 l0 -485 -125 0 -125 0 -3 475 c-1 261
0 481 3 488 3 9 35 12 127 10 l123 -3 0 -485z m1740 0 l0 -485 -125 0 -125 0
-3 475 c-1 261 0 481 3 488 3 9 35 12 127 10 l123 -3 0 -485z"/>
<path d="M6230 11595 l0 -335 118 0 c218 1 328 32 396 112 51 59 71 125 70
233 0 106 -24 171 -82 228 -71 69 -185 97 -399 97 l-103 0 0 -335z"/>
<path d="M15988 11924 c-5 -4 -8 -279 -8 -611 l0 -603 218 0 c184 0 231 3 294
19 216 55 370 203 434 417 13 43 18 91 18 174 0 98 -4 127 -28 195 -68 198
-216 336 -421 391 -65 17 -493 33 -507 18z"/>
<path d="M3702 7317 c-45 -133 -82 -245 -82 -249 0 -11 330 -10 330 0 0 5 -37
117 -83 250 l-83 242 -82 -243z"/>
<path d="M4895 7345 c-45 -23 -92 -81 -112 -139 -24 -67 -23 -242 0 -304 25
-65 55 -102 101 -123 81 -37 173 -20 235 42 59 60 71 109 71 301 l0 158 -47
30 c-26 17 -63 35 -83 40 -52 15 -131 12 -165 -5z"/>
<path d="M12497 6999 c-85 -20 -127 -63 -127 -128 0 -104 106 -143 221 -83 43
22 59 38 81 81 18 35 28 69 28 97 l0 44 -82 -1 c-46 -1 -100 -5 -121 -10z"/>
<path d="M14293 7347 c-49 -19 -82 -53 -111 -115 -24 -51 -27 -68 -26 -167 1
-161 40 -247 132 -287 55 -25 158 -21 216 7 81 39 121 147 114 306 -5 121 -36
194 -98 235 -34 23 -54 28 -118 31 -45 1 -90 -2 -109 -10z"/>
</g>
</svg>
